<?xml version="1.0" encoding="UTF-8"?>
<svg version="1.1" xmlns="http://www.w3.org/2000/svg" width="187" height="129">
<path d="M0 0 C7.99665137 0.35940006 15.59597716 1.87018856 23.3605957 3.71582031 C28.77178208 4.94727431 32.28327764 5.172255 37.48046875 2.9296875 C42.55134596 1.05857312 48.28037981 2.07358638 53.31640625 3.7890625 C59.59906811 6.72176614 63.9836898 11.40585366 68 17 C68.90397005 19.56124846 69 21.2466497 69 24 C69.495 25.485 69.495 25.485 70 27 C66.99624615 26.51939938 65.38766343 25.61140179 62.75 23.9375 C58.73036155 21.52222918 55.61434569 21.67618627 51 22 C53.71604715 24.87420123 53.71604715 24.87420123 57 27 C57 27.66 57 28.32 57 29 C57.75023437 28.94199219 58.50046875 28.88398437 59.2734375 28.82421875 C68.75729297 28.40616467 75.73041788 30.83737697 83 37 C83 37.66 83 38.32 83 39 C83.66 39 84.32 39 85 39 C91.94153389 47.21793684 96.6968737 56.54734987 99 67 C99.63028587 68.68076231 100.28050817 70.35544725 101 72 C100.01 72.495 100.01 72.495 99 73 C100.485 74.98 100.485 74.98 102 77 C100.515 77.495 100.515 77.495 99 78 C99.165 79.27875 99.33 80.5575 99.5 81.875 C99.76726073 83.94627065 100 85.91103575 100 88 C100.33 88.804375 100.66 89.60875 101 90.4375 C102 93 102 93 102 96 C96.97732055 94.70216896 94.36102331 92.80908042 90.8125 89.0625 C89.97332031 88.18722656 89.13414063 87.31195313 88.26953125 86.41015625 C87.14611328 85.21712891 87.14611328 85.21712891 86 84 C85.00432894 82.99568972 84.00653574 81.99342127 83 81 C81.515 81.495 81.515 81.495 80 82 C65.85622249 80.17793526 51.1986328 72.42567248 41.9375 61.5859375 C35.69448127 53.18387479 33.69179673 44.68710822 32.4375 34.4375 C31.64437868 28.151447 30.66367535 22.11918357 29 16 C33.42679007 17.47559669 33.91432696 19.90057368 36 24 C36 24.66 36 25.32 36 26 C36.99 25.34 37.98 24.68 39 24 C37.63016497 20.83884224 37.0109362 20.0072908 34 18 C34 17.01 34 16.02 34 15 C32.88882813 14.91363281 31.77765625 14.82726563 30.6328125 14.73828125 C25.36869938 14.07650041 20.75263293 12.20217447 15.875 10.1875 C15.00746094 9.84396484 14.13992187 9.50042969 13.24609375 9.14648438 C8.44437403 7.19875484 4.09466814 5.20189623 0 2 C0 1.34 0 0.68 0 0 Z M42 7 C42.33 7.66 42.66 8.32 43 9 C43.66 9 44.32 9 45 9 C44.67 10.32 44.34 11.64 44 13 C45.32 12.34 46.64 11.68 48 11 C46.71034824 9.62437146 45.37310707 8.29233607 44 7 C43.34 7 42.68 7 42 7 Z M38 14 C38 14.66 38 15.32 38 16 C38.66 15.67 39.32 15.34 40 15 C39.34 14.67 38.68 14.34 38 14 Z M51 32 C50.34 33.32 49.68 34.64 49 36 C50.32 34.68 51.64 33.36 53 32 C52.34 32 51.68 32 51 32 Z M48 36 C48 37.98 48 39.96 48 42 C48.33 42 48.66 42 49 42 C49 40.02 49 38.04 49 36 C48.67 36 48.34 36 48 36 Z M49 43 C50 45 50 45 50 45 Z M50 45 C51 47 51 47 51 47 Z M60 46 C60.66 46.66 61.32 47.32 62 48 C62.33 47.34 62.66 46.68 63 46 C62.01 46 61.02 46 60 46 Z M65 48 C65.33 48.99 65.66 49.98 66 51 C66.66 50.67 67.32 50.34 68 50 C68 49.34 68 48.68 68 48 C67.01 48 66.02 48 65 48 Z M72 49 C71.67 49.66 71.34 50.32 71 51 C71.66 51 72.32 51 73 51 C72.67 50.34 72.34 49.68 72 49 Z M77 50 C77 50.66 77 51.32 77 52 C77.66 52 78.32 52 79 52 C79 51.34 79 50.68 79 50 C78.34 50 77.68 50 77 50 Z M61 58 C61.33 58.66 61.66 59.32 62 60 C62.66 59.67 63.32 59.34 64 59 C63.01 58.67 62.02 58.34 61 58 Z M65 61 C65.99 62.485 65.99 62.485 67 64 C67.66 63.67 68.32 63.34 69 63 C67.68 62.34 66.36 61.68 65 61 Z M69 64 C71.76647707 66.97140129 74.49677013 68.97181429 78 71 C78.66 71.66 79.32 72.32 80 73 C80.99 72.34 81.98 71.68 83 71 C81.04480616 69.82807953 79.0857461 68.6626071 77.125 67.5 C76.03445312 66.8503125 74.94390625 66.200625 73.8203125 65.53125 C71.24192328 63.84095147 71.24192328 63.84095147 69 64 Z M83 72 C83.639375 72.268125 84.27875 72.53625 84.9375 72.8125 C87 74 87 74 88 77 C89.65 76.67 91.3 76.34 93 76 C90.7448078 73.7448078 88.9952413 73.02276532 86 72 C85.01 72 84.02 72 83 72 Z M93 76 C97 77 97 77 97 77 Z " fill="#1664A0" transform="translate(35,16)"/>
<path d="M0 0 C3.06782993 1.66382307 5.96323528 3.42074603 8.625 5.6875 C8.625 6.3475 8.625 7.0075 8.625 7.6875 C9.285 7.6875 9.945 7.6875 10.625 7.6875 C17.56653389 15.90543684 22.3218737 25.23484987 24.625 35.6875 C25.25528587 37.36826231 25.90550817 39.04294725 26.625 40.6875 C25.635 41.1825 25.635 41.1825 24.625 41.6875 C25.615 43.0075 26.605 44.3275 27.625 45.6875 C9.44815661 44.77865783 -8.42738539 32.59259511 -20.4375 19.4375 C-22.72079253 16.83723274 -23.57176694 15.01416436 -24.375 11.6875 C-25.035 11.3575 -25.695 11.0275 -26.375 10.6875 C-25.16995395 4.54176515 -23.53128718 2.26533192 -18.375 -1.3125 C-11.91107654 -3.46714115 -6.10076107 -3.0097088 0 0 Z M-14.375 14.6875 C-13.715 15.3475 -13.055 16.0075 -12.375 16.6875 C-12.045 16.0275 -11.715 15.3675 -11.375 14.6875 C-12.365 14.6875 -13.355 14.6875 -14.375 14.6875 Z M-9.375 16.6875 C-9.045 17.6775 -8.715 18.6675 -8.375 19.6875 C-7.715 19.3575 -7.055 19.0275 -6.375 18.6875 C-6.375 18.0275 -6.375 17.3675 -6.375 16.6875 C-7.365 16.6875 -8.355 16.6875 -9.375 16.6875 Z M-2.375 17.6875 C-2.705 18.3475 -3.035 19.0075 -3.375 19.6875 C-2.715 19.6875 -2.055 19.6875 -1.375 19.6875 C-1.705 19.0275 -2.035 18.3675 -2.375 17.6875 Z M2.625 18.6875 C2.625 19.3475 2.625 20.0075 2.625 20.6875 C3.285 20.6875 3.945 20.6875 4.625 20.6875 C4.625 20.0275 4.625 19.3675 4.625 18.6875 C3.965 18.6875 3.305 18.6875 2.625 18.6875 Z " fill="#030505" transform="translate(109.375,47.3125)"/>
<path d="M0 0 C0.66 0 1.32 0 2 0 C2 1.65 2 3.3 2 5 C2.66 5 3.32 5 4 5 C4.33 7.31 4.66 9.62 5 12 C5.99 12 6.98 12 8 12 C8 11.01 8 10.02 8 9 C8.804375 8.79375 9.60875 8.5875 10.4375 8.375 C11.283125 7.92125 12.12875 7.4675 13 7 C13.89830839 3.94727535 13.89830839 3.94727535 14 1 C14.61875 1.78375 15.2375 2.5675 15.875 3.375 C17.89858661 5.96837647 17.89858661 5.96837647 20 8 C20.83333333 9.04166667 21.66666667 10.08333333 22.5 11.125 C26.46393744 15.76242196 31.13656138 19.35063563 36 23 C36.88816406 23.66902344 37.77632812 24.33804688 38.69140625 25.02734375 C42.88419521 28.08289338 45.84729407 30.10651732 51 31 C51.598125 31.495 52.19625 31.99 52.8125 32.5 C56.06845724 34.73265639 59.08768602 34.62138897 63 35 C63.66 35.33 64.32 35.66 65 36 C65.53417154 39.36528073 66 42.59627516 66 46 C66.495 47.2065625 66.495 47.2065625 67 48.4375 C68 51 68 51 68 54 C62.97732055 52.70216896 60.36102331 50.80908042 56.8125 47.0625 C55.97332031 46.18722656 55.13414063 45.31195313 54.26953125 44.41015625 C53.52058594 43.61480469 52.77164063 42.81945312 52 42 C51.00432894 40.99568972 50.00653574 39.99342127 49 39 C48.01 39.33 47.02 39.66 46 40 C31.85622249 38.17793526 17.1986328 30.42567248 7.9375 19.5859375 C3.59048985 13.73558634 0 7.44680811 0 0 Z " fill="#17659F" transform="translate(69,58)"/>
<path d="M0 0 C7.99665137 0.35940006 15.59597716 1.87018856 23.3605957 3.71582031 C28.77178208 4.94727431 32.28327764 5.172255 37.48046875 2.9296875 C42.55134596 1.05857312 48.28037981 2.07358638 53.31640625 3.7890625 C59.59906811 6.72176614 63.9836898 11.40585366 68 17 C68.75 19.3125 68.75 19.3125 69 21 C66.47570615 19.91815978 65.07463321 19.09121837 63.3125 16.9375 C60.3097757 14.42170397 58.04283602 14.40496449 54.21875 14.17578125 C52.04394942 14.00348191 50.09709876 13.58623443 48 13 C47.34 13.99 46.68 14.98 46 16 C42.92078868 16.25660094 40.78863007 16.39431504 38 15 C37.4534375 15.18820313 36.906875 15.37640625 36.34375 15.5703125 C32.80369463 16.21932265 29.83175112 14.98545259 26.5 13.875 C25.79311035 13.64562744 25.0862207 13.41625488 24.35791016 13.17993164 C6.58190522 7.30209032 6.58190522 7.30209032 0 2 C0 1.34 0 0.68 0 0 Z M42 7 C42.33 7.66 42.66 8.32 43 9 C43.66 9 44.32 9 45 9 C44.67 10.32 44.34 11.64 44 13 C45.32 12.34 46.64 11.68 48 11 C46.71034824 9.62437146 45.37310707 8.29233607 44 7 C43.34 7 42.68 7 42 7 Z " fill="#080807" transform="translate(35,16)"/>
<path d="M0 0 C5.75 1.75 5.75 1.75 8 4 C9.90580868 4.42187804 9.90580868 4.42187804 12 4.5625 C14.37969847 4.77684784 15.84677336 4.92338668 18 6 C18.53417154 9.36528073 19 12.59627516 19 16 C19.33 16.804375 19.66 17.60875 20 18.4375 C21 21 21 21 21 24 C13.02788433 21.87642334 7.83389418 16.12776568 3.24609375 9.4453125 C0 3.80395299 0 3.80395299 0 0 Z " fill="#0A0907" transform="translate(116,88)"/>
<path d="M0 0 C9.85646924 1.72097082 16.98261585 4.7256139 22.90625 13.03515625 C24.01495262 15.02686132 24.56328081 16.77173959 25 19 C22.47570615 17.91815978 21.07463321 17.09121837 19.3125 14.9375 C16.3097757 12.42170397 14.04283602 12.40496449 10.21875 12.17578125 C8.04394942 12.00348191 6.09709876 11.58623443 4 11 C3.01 12.485 3.01 12.485 2 14 C-1.07921132 14.25660094 -3.21136993 14.39431504 -6 13 C-6.61875 13.185625 -7.2375 13.37125 -7.875 13.5625 C-10.58235674 14.11989698 -11.68865109 13.40331898 -14 12 C-10.17679443 10.57741188 -7.08718695 9.75957724 -3 10 C-3 10.99 -3 11.98 -3 13 C-2.01 13 -1.02 13 0 13 C0.33 12.01 0.66 11.02 1 10 C1.66 9.34 2.32 8.68 3 8 C1.35 6.68 -0.3 5.36 -2 4 C-1.34 3.67 -0.68 3.34 0 3 C0 2.01 0 1.02 0 0 Z " fill="#060A0C" transform="translate(79,18)"/>
<path d="M0 0 C5.47932789 1.54545146 10.11429181 4.15543212 15 7 C14.236875 7.7425 13.47375 8.485 12.6875 9.25 C10.5606298 11.4263323 8.7440044 13.52167796 7 16 C7.639375 16.268125 8.27875 16.53625 8.9375 16.8125 C11 18 11 18 12 21 C10.865625 20.525625 9.73125 20.05125 8.5625 19.5625 C1.3185306 17.09349435 -6.42091677 17.25234605 -14 17 C-11.42595029 13.13892543 -9.38979741 13.05680308 -5 12 C-5 11.01 -5 10.02 -5 9 C-0.545 9.99 -0.545 9.99 4 11 C4.66 9.68 5.32 8.36 6 7 C5.01 6.401875 4.02 5.80375 3 5.1875 C2.01 4.465625 1.02 3.74375 0 3 C0 2.01 0 1.02 0 0 Z " fill="#CD6A5E" transform="translate(88,89)"/>
<path d="M0 0 C4.05424688 1.80301934 7.5315927 4.37025128 11.125 6.9375 C11.75792969 7.38029297 12.39085938 7.82308594 13.04296875 8.27929688 C17.80142145 11.66881042 19.95256942 14.58893346 22 20 C19.60929425 21.52084802 18.33660712 22.0286585 15.4765625 21.78515625 C7.08008622 19.65728212 -0.55540813 16.40728335 -8 12 C-8.33 11.34 -8.66 10.68 -9 10 C-7.603522 10.45636536 -6.2078492 10.91519488 -4.8125 11.375 C-3.98878906 11.64570312 -3.16507812 11.91640625 -2.31640625 12.1953125 C0 13 0 13 2.75 14.25 C5.51775375 15.17258458 7.23051867 14.79128038 10 14 C10 12.02 10 10.04 10 8 C9.01 8 8.02 8 7 8 C6.67 7.34 6.34 6.68 6 6 C4.02477154 4.95191959 2.02518491 3.9479589 0 3 C0 2.01 0 1.02 0 0 Z " fill="#17689C" transform="translate(97,76)"/>
<path d="M0 0 C6.75 0.875 6.75 0.875 9 2 C10.66194453 2.35613097 12.328451 2.69208308 14 3 C14 3.66 14 4.32 14 5 C15.50721474 6.2123249 17.01526829 7.423656 18.53125 8.625 C20.51540131 10.48250335 21.26181526 12.4163534 22 15 C19.03538287 14.52566126 17.36873934 13.6115319 14.75 12 C10.86179241 9.67213602 7.48763211 9.31492155 3 9 C3 7.35 3 5.7 3 4 C0.87439563 4.30836232 -1.25047065 4.62181614 -3.375 4.9375 C-4.55835937 5.11152344 -5.74171875 5.28554688 -6.9609375 5.46484375 C-9.90702381 5.83462786 -9.90702381 5.83462786 -12 7 C-12.66 6.67 -13.32 6.34 -14 6 C-13.67 5.01 -13.34 4.02 -13 3 C-12.22914062 3.03480469 -11.45828125 3.06960937 -10.6640625 3.10546875 C-9.15972656 3.14607422 -9.15972656 3.14607422 -7.625 3.1875 C-6.62726563 3.22230469 -5.62953125 3.25710937 -4.6015625 3.29296875 C-3.31378906 3.14794922 -3.31378906 3.14794922 -2 3 C-1.34 2.01 -0.68 1.02 0 0 Z " fill="#236796" transform="translate(83,28)"/>
<path d="M0 0 C4.42679007 1.47559669 4.91432696 3.90057368 7 8 C7 8.66 7 9.32 7 10 C8.65 8.68 10.3 7.36 12 6 C13.125 9.75 13.125 9.75 12 12 C11 13 11 13 8.4375 13.0625 C7.633125 13.041875 6.82875 13.02125 6 13 C5.67 15.31 5.34 17.62 5 20 C4.67 20 4.34 20 4 20 C3.87882812 19.2265625 3.75765625 18.453125 3.6328125 17.65625 C2.67147688 11.68117941 1.57340459 5.84407421 0 0 Z " fill="#236391" transform="translate(64,32)"/>
<path d="M0 0 C6.75 0.875 6.75 0.875 9 2 C10.66194453 2.35613097 12.328451 2.69208308 14 3 C10.92677456 3.91058531 8.19902639 4.08886184 5 4 C6.32 4.66 7.64 5.32 9 6 C8.01 6.33 7.02 6.66 6 7 C6.33 7.66 6.66 8.32 7 9 C5.68 9 4.36 9 3 9 C3 7.35 3 5.7 3 4 C0.87439563 4.30836232 -1.25047065 4.62181614 -3.375 4.9375 C-4.55835937 5.11152344 -5.74171875 5.28554688 -6.9609375 5.46484375 C-9.90702381 5.83462786 -9.90702381 5.83462786 -12 7 C-12.66 6.67 -13.32 6.34 -14 6 C-13.67 5.01 -13.34 4.02 -13 3 C-12.22914062 3.03480469 -11.45828125 3.06960937 -10.6640625 3.10546875 C-9.15972656 3.14607422 -9.15972656 3.14607422 -7.625 3.1875 C-6.62726563 3.22230469 -5.62953125 3.25710937 -4.6015625 3.29296875 C-3.31378906 3.14794922 -3.31378906 3.14794922 -2 3 C-1.34 2.01 -0.68 1.02 0 0 Z " fill="#265776" transform="translate(83,28)"/>
<path d="M0 0 C5.47932789 1.54545146 10.11429181 4.15543212 15 7 C14.01 8.485 14.01 8.485 13 10 C10.5 10.125 10.5 10.125 8 10 C7.01 10.495 7.01 10.495 6 11 C6 9.68 6 8.36 6 7 C4.01924973 5.63823419 2.01920337 4.30406884 0 3 C0 2.01 0 1.02 0 0 Z " fill="#D0675E" transform="translate(88,89)"/>
<path d="M0 0 C-0.12375 1.0725 -0.2475 2.145 -0.375 3.25 C-0.25125 4.4875 -0.1275 5.725 0 7 C2.86615486 9.49540371 2.86615486 9.49540371 6 11 C5.67 11.99 5.34 12.98 5 14 C4.34 14 3.68 14 3 14 C2.67 12.68 2.34 11.36 2 10 C0.68 9.67 -0.64 9.34 -2 9 C-1.67 6.69 -1.34 4.38 -1 2 C-3.86724686 2.57344937 -4.8614515 2.8614515 -7 5 C-8.32 4.34 -9.64 3.68 -11 3 C-11.33 3.99 -11.66 4.98 -12 6 C-12.66 4.68 -13.32 3.36 -14 2 C-12.36459755 0.36459755 -10.37370167 0.64281624 -8.125 0.4375 C-6.79855469 0.31181641 -6.79855469 0.31181641 -5.4453125 0.18359375 C-3 0 -3 0 0 0 Z " fill="#1D6598" transform="translate(86,32)"/>
<path d="M0 0 C0 0.99 0 1.98 0 3 C-1.65 3.66 -3.3 4.32 -5 5 C-4.505 5.598125 -4.01 6.19625 -3.5 6.8125 C-2 9 -2 9 -2 12 C-5.7952131 10.50902342 -7.61042731 8.24299151 -10 5 C-4.5 0 -4.5 0 0 0 Z " fill="#CC7062" transform="translate(109,97)"/>
<path d="M0 0 C4.05424688 1.80301934 7.5315927 4.37025128 11.125 6.9375 C11.75792969 7.38029297 12.39085938 7.82308594 13.04296875 8.27929688 C17.80142145 11.66881042 19.95256942 14.58893346 22 20 C21.34 20.33 20.68 20.66 20 21 C19.34 18.69 18.68 16.38 18 14 C17.34 14 16.68 14 16 14 C16 13.34 16 12.68 16 12 C14.02 11.34 12.04 10.68 10 10 C10 9.34 10 8.68 10 8 C9.01 8 8.02 8 7 8 C6.67 7.34 6.34 6.68 6 6 C4.02477154 4.95191959 2.02518491 3.9479589 0 3 C0 2.01 0 1.02 0 0 Z " fill="#24587A" transform="translate(97,76)"/>
<path d="M0 0 C1.98 0.99 1.98 0.99 4 2 C4.33 1.34 4.66 0.68 5 0 C8 3.75 8 3.75 8 6 C7.01 6.495 7.01 6.495 6 7 C6.99 8.32 7.98 9.64 9 11 C6.03 10.67 3.06 10.34 0 10 C1 8 1 8 3 7 C2.01 6.34 1.02 5.68 0 5 C-0.1875 2.375 -0.1875 2.375 0 0 Z " fill="#0E0C08" transform="translate(128,82)"/>
<path d="M0 0 C1.18851563 0.00902344 2.37703125 0.01804687 3.6015625 0.02734375 C4.51679687 0.03894531 5.43203125 0.05054687 6.375 0.0625 C6.375 1.0525 6.375 2.0425 6.375 3.0625 C1.425 3.0625 -3.525 3.0625 -8.625 3.0625 C-8.625 2.4025 -8.625 1.7425 -8.625 1.0625 C-5.74084117 -0.37957941 -3.20778472 -0.03144887 0 0 Z " fill="#DD6955" transform="translate(85.625,101.9375)"/>
<path d="M0 0 C0.66 0 1.32 0 2 0 C2 1.65 2 3.3 2 5 C2.66 5 3.32 5 4 5 C4.33 7.31 4.66 9.62 5 12 C5.66 12 6.32 12 7 12 C7.33 13.65 7.66 15.3 8 17 C8.66 17 9.32 17 10 17 C9.67 17.99 9.34 18.98 9 20 C4.01083323 14.07435532 0 7.98450246 0 0 Z " fill="#2B688F" transform="translate(69,58)"/>
<path d="M0 0 C0.99 0.33 1.98 0.66 3 1 C1.375 3 1.375 3 -1 5 C-4.14522722 5.31452272 -6.15916359 5.42041821 -9 4 C-9.61875 4.185625 -10.2375 4.37125 -10.875 4.5625 C-13.58235674 5.11989698 -14.68865109 4.40331898 -17 3 C-13.17679443 1.57741188 -10.08718695 0.75957724 -6 1 C-6 1.99 -6 2.98 -6 4 C-5.01 4 -4.02 4 -3 4 C-2.67 3.01 -2.34 2.02 -2 1 C-1.34 0.67 -0.68 0.34 0 0 Z " fill="#182D3B" transform="translate(82,27)"/>
<path d="M0 0 C5.99932374 1.8331267 11.44920563 4.07321751 17 7 C16.34 7.66 15.68 8.32 15 9 C12.68374939 7.88222229 10.37215395 6.75625908 8.0625 5.625 C7.40314453 5.30789062 6.74378906 4.99078125 6.06445312 4.6640625 C1.11328125 2.2265625 1.11328125 2.2265625 0 0 Z " fill="#477899" transform="translate(88,86)"/>
<path d="M0 0 C1.32 0.33 2.64 0.66 4 1 C3.67 2.65 3.34 4.3 3 6 C1.02 6 -0.96 6 -3 6 C-2.01 4.02 -1.02 2.04 0 0 Z " fill="#1065AD" transform="translate(104,85)"/>
<path d="M0 0 C3.91211733 1.15585285 6.8745041 2.35534962 10 5 C4.6440678 6.33898305 4.6440678 6.33898305 1.625 4.75 C0 3 0 3 0 0 Z " fill="#996F66" transform="translate(88,89)"/>
<path d="M0 0 C0 0.99 0 1.98 0 3 C-1.65 3.66 -3.3 4.32 -5 5 C-5 4.34 -5 3.68 -5 3 C-5.66 2.67 -6.32 2.34 -7 2 C-4 0 -4 0 0 0 Z " fill="#B86360" transform="translate(109,97)"/>
<path d="M0 0 C0.61875 0.78375 1.2375 1.5675 1.875 2.375 C3.89858661 4.96837647 3.89858661 4.96837647 6 7 C6 7.66 6 8.32 6 9 C4.125 8.6875 4.125 8.6875 2 8 C-0.1519437 4.77208445 -0.20086443 3.71599191 0 0 Z " fill="#1C6286" transform="translate(83,59)"/>
<path d="M0 0 C0.33 1.32 0.66 2.64 1 4 C-2.3 3.34 -5.6 2.68 -9 2 C-9 1.67 -9 1.34 -9 1 C-4.545 0.505 -4.545 0.505 0 0 Z " fill="#426D90" transform="translate(116,94)"/>
<path d="M0 0 C2.64 1.65 5.28 3.3 8 5 C7.67 5.99 7.34 6.98 7 8 C6.34 8 5.68 8 5 8 C4.67 6.68 4.34 5.36 4 4 C2.68 3.67 1.36 3.34 0 3 C0 2.01 0 1.02 0 0 Z " fill="#276385" transform="translate(84,38)"/>
<path d="M0 0 C2.52588702 2.36292656 3.88820837 3.66462511 5 7 C1.73045798 6.43628586 0.17424117 5.50037734 -2 3 C-1.34 2.67 -0.68 2.34 0 2 C0 1.34 0 0.68 0 0 Z " fill="#326380" transform="translate(100,36)"/>
<path d="M0 0 C0 0.66 0 1.32 0 2 C-6.4 4.21538462 -6.4 4.21538462 -9.4375 3.125 C-9.953125 2.75375 -10.46875 2.3825 -11 2 C-7.17679443 0.57741188 -4.08718695 -0.24042276 0 0 Z " fill="#192121" transform="translate(76,28)"/>
<path d="M0 0 C4.875 2.625 4.875 2.625 6 6 C3.0625 5.1875 3.0625 5.1875 0 4 C-0.33 3.01 -0.66 2.02 -1 1 C-0.67 0.67 -0.34 0.34 0 0 Z " fill="#C57669" transform="translate(94,104)"/>
<path d="M0 0 C2.31 1.98 4.62 3.96 7 6 C6.01 6.33 5.02 6.66 4 7 C2 5.1875 2 5.1875 0 3 C0 2.01 0 1.02 0 0 Z " fill="#25607F" transform="translate(90,69)"/>
<path d="M0 0 C0.99 0.33 1.98 0.66 3 1 C4.1875 3.5625 4.1875 3.5625 5 6 C4.34 6 3.68 6 3 6 C2.67 6.66 2.34 7.32 2 8 C1.34 5.36 0.68 2.72 0 0 Z " fill="#3B5C73" transform="translate(64,32)"/>
<path d="M0 0 C0 0.99 0 1.98 0 3 C-1.98 3 -3.96 3 -6 3 C-6.33 2.34 -6.66 1.68 -7 1 C-4.53721199 -0.231394 -2.7204945 -0.07159196 0 0 Z " fill="#E76353" transform="translate(92,102)"/>
<path d="M0 0 C3.85645121 -0.22036864 6.49223216 0.39644899 10 2 C10 2.33 10 2.66 10 3 C7.25 3.75 7.25 3.75 4 4 C1.625 2.0625 1.625 2.0625 0 0 Z " fill="#226290" transform="translate(102,92)"/>
<path d="M0 0 C2.475 0.99 2.475 0.99 5 2 C4.01 2.495 4.01 2.495 3 3 C2.34786708 5.02463255 2.34786708 5.02463255 2 7 C0.5393715 4.35261084 0 3.10551666 0 0 Z " fill="#0B171A" transform="translate(116,88)"/>
<path d="" fill="#FFFFFF" transform="translate(0,0)"/>
<path d="" fill="#FFFFFF" transform="translate(0,0)"/>
<path d="" fill="#FFFFFF" transform="translate(0,0)"/>
<path d="" fill="#FFFFFD" transform="translate(0,0)"/>
<path d="" fill="#FFFFFF" transform="translate(0,0)"/>
<path d="" fill="#FFFFFF" transform="translate(0,0)"/>
<path d="" fill="#67ECE6" transform="translate(0,0)"/>
<path d="" fill="#FFFFFF" transform="translate(0,0)"/>
<path d="" fill="#FAFBF8" transform="translate(0,0)"/>
<path d="" fill="#FFFFFF" transform="translate(0,0)"/>
<path d="" fill="#FFFFFF" transform="translate(0,0)"/>
<path d="" fill="#FFFFFF" transform="translate(0,0)"/>
<path d="" fill="#FFFFFF" transform="translate(0,0)"/>
<path d="" fill="#FFFFFF" transform="translate(0,0)"/>
<path d="" fill="#FFFFFF" transform="translate(0,0)"/>
<path d="" fill="#FFFFFF" transform="translate(0,0)"/>
<path d="" fill="#FFFFFF" transform="translate(0,0)"/>
<path d="" fill="#FFFFFF" transform="translate(0,0)"/>
<path d="" fill="#FFFFFD" transform="translate(0,0)"/>
<path d="" fill="#FFFFFF" transform="translate(0,0)"/>
<path d="" fill="#FBFFF3" transform="translate(0,0)"/>
<path d="" fill="#FEFEFC" transform="translate(0,0)"/>
<path d="" fill="#FFFFFF" transform="translate(0,0)"/>
<path d="" fill="#FFFFF2" transform="translate(0,0)"/>
<path d="" fill="#FFFFFF" transform="translate(0,0)"/>
<path d="" fill="#FFFFFF" transform="translate(0,0)"/>
<path d="" fill="#FFFFFF" transform="translate(0,0)"/>
<path d="" fill="#FFFFFF" transform="translate(0,0)"/>
<path d="" fill="#FFFFFF" transform="translate(0,0)"/>
<path d="" fill="#FFFFFF" transform="translate(0,0)"/>
<path d="" fill="#FEFEFE" transform="translate(0,0)"/>
<path d="" fill="#FFFFFF" transform="translate(0,0)"/>
<path d="" fill="#FEFEFE" transform="translate(0,0)"/>
<path d="" fill="#FFFFFF" transform="translate(0,0)"/>
<path d="" fill="#FFFFFF" transform="translate(0,0)"/>
<path d="" fill="#F3FFFF" transform="translate(0,0)"/>
<path d="" fill="#FFFFFF" transform="translate(0,0)"/>
<path d="" fill="#FFFFFF" transform="translate(0,0)"/>
<path d="" fill="#FAFFFF" transform="translate(0,0)"/>
<path d="" fill="#FFFFFF" transform="translate(0,0)"/>
<path d="" fill="#FFFFFF" transform="translate(0,0)"/>
<path d="" fill="#FFFFFF" transform="translate(0,0)"/>
<path d="" fill="#FFFFFF" transform="translate(0,0)"/>
<path d="" fill="#FFFFFF" transform="translate(0,0)"/>
<path d="" fill="#FFFFFF" transform="translate(0,0)"/>
<path d="" fill="#FFFFFF" transform="translate(0,0)"/>
<path d="" fill="#FFFFFF" transform="translate(0,0)"/>
<path d="" fill="#FFFFFF" transform="translate(0,0)"/>
<path d="" fill="#5AD6DF" transform="translate(0,0)"/>
<path d="" fill="#FFFFFF" transform="translate(0,0)"/>
<path d="" fill="#FEFEFE" transform="translate(0,0)"/>
<path d="" fill="#FFFFFF" transform="translate(0,0)"/>
<path d="" fill="#FFFFFF" transform="translate(0,0)"/>
<path d="" fill="#FFFFFF" transform="translate(0,0)"/>
<path d="" fill="#FFFFFF" transform="translate(0,0)"/>
<path d="" fill="#FFFFFF" transform="translate(0,0)"/>
<path d="" fill="#FFFFFF" transform="translate(0,0)"/>
<path d="" fill="#FFFFFF" transform="translate(0,0)"/>
<path d="" fill="#FFFFFF" transform="translate(0,0)"/>
<path d="" fill="#62F8E0" transform="translate(0,0)"/>
<path d="" fill="#F6F4F5" transform="translate(0,0)"/>
<path d="" fill="#F7F7F7" transform="translate(0,0)"/>
<path d="" fill="#FFFFFF" transform="translate(0,0)"/>
<path d="" fill="#FFFFFF" transform="translate(0,0)"/>
<path d="" fill="#FFFFFF" transform="translate(0,0)"/>
<path d="" fill="#FFFFFF" transform="translate(0,0)"/>
<path d="" fill="#FFFFFF" transform="translate(0,0)"/>
<path d="" fill="#FFFFFF" transform="translate(0,0)"/>
<path d="" fill="#FFFFFF" transform="translate(0,0)"/>
<path d="" fill="#FFFFFF" transform="translate(0,0)"/>
<path d="" fill="#FFFFFF" transform="translate(0,0)"/>
<path d="" fill="#FFFFFF" transform="translate(0,0)"/>
<path d="" fill="#FFFFFF" transform="translate(0,0)"/>
<path d="" fill="#FFFFFF" transform="translate(0,0)"/>
<path d="" fill="#FFFFFF" transform="translate(0,0)"/>
<path d="" fill="#FFFFFF" transform="translate(0,0)"/>
<path d="" fill="#FFFFFF" transform="translate(0,0)"/>
</svg>
